PathFileType	4	(X/Y/Z)	C:/Users/opensim2020/Desktop/walking_exp_matlab/subject01_walking06_straight_03.trc	
DataRate	CameraRate	NumFrames	NumMarkers	Units	OrigDataRate	OrigDataStartFrame	OrigNumFrames	
100.00	100.00	4	43	mm	100.00	2285	206	
Frame#	Time	LFHD			RFHD			LBHD			RBHD			C7			T10			CLAV			STRN			RBAK			LSHO			LUPA			LELB			LFRM			LWRA			LWRB			LFIN			RSHO			RUPA			RELB			RFRM			RWRA			RWRB			RFIN			LASI			RASI			LPSI			RPSI			LTHI			LKNE			LTIB			LANK			LHEE			LTOE			RTHI			RKNE			RTIB			RANK			RHEE			RTOE			*39			*40			*41			*42			
		X1	Y1	Z1	X2	Y2	Z2	X3	Y3	Z3	X4	Y4	Z4	X5	Y5	Z5	X6	Y6	Z6	X7	Y7	Z7	X8	Y8	Z8	X9	Y9	Z9	X10	Y10	Z10	X11	Y11	Z11	X12	Y12	Z12	X13	Y13	Z13	X14	Y14	Z14	X15	Y15	Z15	X16	Y16	Z16	X17	Y17	Z17	X18	Y18	Z18	X19	Y19	Z19	X20	Y20	Z20	X21	Y21	Z21	X22	Y22	Z22	X23	Y23	Z23	X24	Y24	Z24	X25	Y25	Z25	X26	Y26	Z26	X27	Y27	Z27	X28	Y28	Z28	X29	Y29	Z29	X30	Y30	Z30	X31	Y31	Z31	X32	Y32	Z32	X33	Y33	Z33	X34	Y34	Z34	X35	Y35	Z35	X36	Y36	Z36	X37	Y37	Z37	X38	Y38	Z38	X39	Y39	Z39	X40	Y40	Z40	X41	Y41	Z41	X42	Y42	Z42	X43	Y43	Z43	

181	1.800	1344.43225	682.29169	1651.84839	1451.14636	724.39081	1658.61108	1384.26843	566.95331	1621.26526	1497.06934	608.24042	1628.04163	1423.10901	519.87280	1427.15137	1435.43762	476.36389	1133.29370	1420.02490	660.11072	1351.34338	1413.73303	696.89838	1196.66638	1500.29248	460.76022	1233.16235	1261.73621	599.45050	1382.40417	1168.83484	594.85364	1205.09570	1149.59045	621.99408	1054.96826	1127.27795	713.00311	981.20667	1151.64160	838.42346	925.02710	1124.24023	796.78503	892.83246	1117.26831	874.74255	860.32019	1574.37024	602.59967	1384.08130	1668.53076	507.40176	1197.47913	1670.34912	483.97086	1075.71179	1703.16174	479.48318	956.31659	1690.67200	528.13062	822.02673	1727.20618	484.25201	835.71472	1725.44751	498.31149	749.54120	1317.73279	638.32916	923.23236	1534.88464	655.68286	930.92865	1391.12756	457.49625	939.19458	1535.53882	471.62860	939.12482	1279.72485	541.43774	597.75586	1299.36072	500.46805	466.61807	1298.65308	413.91135	298.63556	1357.76660	345.25677	90.76505	1408.75415	295.27115	71.66556	1356.18408	485.08340	34.55495	1612.08923	677.57666	605.04553	1580.70044	744.27264	464.66849	1595.90930	753.70599	292.10025	1556.01855	812.50897	88.33107	1505.45349	782.41718	35.27481	1555.66858	957.84167	93.50349	1429.54407	710.43188	1692.77246	-3101.85156	1973.12915	1023.39435	-3140.65015	2012.55310	1022.02686			 
182	1.810	1346.05151	691.85254	1651.19812	1452.78918	734.06293	1657.95679	1386.02795	576.48981	1620.58545	1498.76099	617.91211	1627.30164	1424.70874	529.61359	1426.28503	1436.48254	486.66040	1132.23889	1421.44727	669.98260	1350.69238	1414.75159	707.05792	1196.04492	1501.38245	470.85208	1231.98413	1263.23059	609.23584	1381.98096	1169.73157	604.83875	1205.00391	1149.64807	632.53247	1055.18396	1127.16943	723.97729	981.95398	1151.50244	849.73853	926.59216	1123.92944	808.37866	894.19232	1116.68384	886.51666	862.44440	1575.86536	612.32709	1382.99512	1669.63049	516.98584	1196.37146	1671.49524	493.54871	1074.64868	1704.20227	489.05069	955.15643	1691.81494	537.67676	820.93292	1728.13086	493.76328	834.43384	1726.42627	507.90512	748.33966	1318.25244	648.40192	922.44843	1535.17334	666.61005	930.05670	1392.13245	467.95682	938.48578	1536.26782	482.44244	938.30255	1279.74182	549.08813	597.78314	1299.41125	506.95486	466.86075	1298.43750	418.10071	299.96188	1357.17993	346.52118	92.83199	1408.22217	295.96555	74.65137	1356.16724	485.21475	34.49681	1611.66162	687.80750	604.15143	1580.58069	754.03699	463.85675	1595.91174	766.25952	291.76840	1555.69824	826.77869	88.47207	1505.04919	796.81909	34.70860	1553.75232	971.92511	94.26949	1431.19543	720.06854	1692.07666	-3101.92285	1973.03882	1023.71820	-3140.64917	2012.56653	1022.08850			 
183	1.820	1347.82166	701.38348	1650.60437	1454.54138	743.68750	1657.36560	1387.84204	586.05902	1619.89136	1500.55933	627.61139	1626.60046	1426.39587	539.47705	1425.37683	1437.53406	497.03519	1131.28918	1422.99963	679.96906	1350.10986	1415.91785	717.32434	1195.56519	1502.50769	481.02969	1230.79431	1264.77527	619.10712	1381.58252	1170.71191	614.77771	1205.00354	1149.81519	642.76825	1055.27039	1127.22803	734.68176	982.65186	1151.41370	860.66504	927.91943	1123.78601	819.52747	895.36438	1116.20227	897.89044	864.29175	1577.45459	622.16064	1381.92432	1670.82764	526.70380	1195.10217	1672.70862	503.41693	1073.41321	1705.44495	499.00531	953.91254	1692.98645	547.67865	819.71686	1729.63513	503.89850	833.45148	1727.57739	517.95398	747.18439	1318.48645	658.91608	921.82959	1535.58350	677.57367	929.29724	1393.17505	478.44656	937.72028	1537.27454	493.20132	937.40149	1279.87634	557.30579	597.75452	1299.44641	514.21527	467.03876	1298.05273	422.76474	301.41974	1356.64514	347.81970	95.37330	1407.45581	296.91501	77.98082	1355.62500	485.08777	34.81526	1611.37988	699.25378	603.73724	1580.24438	764.12225	462.80450	1594.86365	776.77490	290.49432	1554.79712	838.36023	87.45834	1504.35510	807.67157	34.69150	1552.26794	984.09705	93.91633	1432.93848	729.62878	1691.49146	-3101.93994	1973.19824	1023.20062	-3140.54272	2012.54663	1022.05762			 
184	1.830	1349.67126	710.82123	1650.06348	1456.30200	753.26813	1656.80615	1389.81628	595.63770	1619.22595	1502.46655	637.29584	1625.87610	1428.08545	549.38312	1424.53271	1438.58252	507.42319	1130.33643	1424.63708	689.97882	1349.55493	1417.07544	727.67328	1195.10669	1503.73071	491.30173	1229.65552	1266.41003	628.93188	1381.26160	1171.79700	624.63129	1204.94861	1150.23621	652.82697	1055.41992	1127.38000	745.02960	983.21027	1151.42554	871.30048	929.10510	1123.76526	830.25482	896.32996	1115.80713	908.79041	865.82220	1579.09192	632.01837	1380.84314	1672.13965	536.66998	1193.79187	1673.99744	513.54749	1072.04663	1706.65784	509.23669	952.52289	1694.19275	558.17572	818.40936	1730.84070	514.32111	832.07538	1728.72729	528.28076	745.77307	1319.00281	669.47247	921.14618	1536.08276	688.71228	928.57349	1394.30005	489.22226	937.11780	1538.14722	503.98181	936.58655	1280.08325	566.03577	597.58667	1299.46521	522.13477	467.07825	1297.71594	427.94662	302.95325	1355.88062	349.29126	97.81021	1406.54358	298.05319	81.49847	1355.51636	485.19836	34.82512	1610.97388	711.36780	603.16644	1579.75574	774.52087	461.66437	1593.87744	786.61310	289.13544	1553.95752	847.97668	86.20090	1503.51831	817.80133	32.73590	1550.42334	993.62830	92.13741	1434.76318	739.14911	1690.92737	-3102.04370	1973.04492	1023.96198	-3140.53467	2012.57959	1022.01239			 
